
        <svg xmlns="http://www.w3.org/2000/svg" xmlns:xlink="http://www.w3.org/1999/xlink" version="1.1" width="3126.5830786119295" 
        height="978.4971371254286" viewBox="0 0 3126.5830786119295 978.4971371254286">
			
			<g transform="scale(6.329153930596472) translate(10, 10)">
				<defs id="SvgjsDefs5006"></defs><g id="SvgjsG5007" featureKey="pxMwYC-0" transform="matrix(0.7427063140258877,0,0,0.7427063140258877,200.36842195091538,-3.4908937760460197)" fill="#01696e"> <path xmlns="http://www.w3.org/2000/svg" d="m44.723 5.1992c-4.3555 1.1367-7.9688 4.125-9.957 8.0664h7.0664c0.49219-2.8203 1.3789-5.8906 2.8906-8.0664zm-17.582 81.965c-0.47266-0.29297-1.0938-0.14844-1.3867 0.32031-0.29297 0.47266-0.14844 1.0938 0.32422 1.3867 14.082 8.7812 32 8.5469 45.871-0.59375 0.46484-0.30469 0.59375-0.92969 0.28906-1.3945-0.30469-0.46484-0.92969-0.59375-1.3945-0.28516-13.238 8.7109-30.266 8.9297-43.703 0.56641zm-3.3633-66.418c0.4375-0.33984 0.51953-0.97266 0.17969-1.4102-0.33984-0.44141-0.97266-0.51953-1.4141-0.17969-7.1719 5.5469-12.473 13.406-14.922 22.133-0.18359 0.64844 0.30859 1.2812 0.97266 1.2812 0.4375 0 0.84375-0.29297 0.96875-0.73437 2.3359-8.3164 7.3828-15.805 14.215-21.09zm65.898 21.258c-2.4375-9.293-8.0195-17.57-15.723-23.309-0.44531-0.32812-1.0742-0.23828-1.4062 0.20703-0.33203 0.44531-0.24219 1.0742 0.20703 1.4062 7.332 5.4688 12.652 13.355 14.973 22.207 0.14063 0.54297 0.70313 0.85938 1.2266 0.71484 0.53906-0.13672 0.85938-0.6875 0.72266-1.2266zm2.7383 37.371h-29.758v2.6602h29.762zm-1.875-15.289h-26.008v13.277h26.008zm-13.008-5.4375c-3.1406 0-6.1367 1.2539-8.3438 3.4258h16.695c-2.2109-2.1758-5.2031-3.4258-8.3516-3.4258zm-5.2891-7.3086c0 2.9219 2.3789 5.2969 5.3008 5.2969 2.9141-0.003907 5.2891-2.3789 5.2891-5.2969 0-2.918-2.375-5.293-5.293-5.293-2.9219 0-5.2969 2.375-5.2969 5.293zm-35.512-0.28516-4.1523 13.172h11.012c0.29688 0 0.58594 0.03125 0.86719 0.089844l4.1836-13.262zm-14.91 10.191 8.418 4.8594c0.15234 0.089843 0.32422 0.13281 0.50391 0.13281h12.844c1.2539 0 2.2734 1.0195 2.2734 2.2734 0 1.2539-1.0195 2.2734-2.2734 2.2734l-13.074 0.003906c-0.92188 0-1.5703-0.20312-1.7148-0.26953l-6.1133-3.5273c-0.66797-0.38281-1.5117 0.09375-1.5117 0.87109v14.172h-12.02v-18.223c0-1.4141 1.1523-2.5664 2.5703-2.5664zm0-7.8398c0-3.2109-2.6133-5.8203-5.8242-5.8203-3.2109 0-5.8203 2.6094-5.8203 5.8203s2.6094 5.8242 5.8203 5.8242c3.2109 0 5.8242-2.6094 5.8242-5.8242zm33.641-26.191c-0.48828 2.8047-1.3867 5.9062-2.8945 8.0664 4.3555-1.1367 7.9688-4.125 9.9609-8.0664zm-11.594 0h9.5586c-0.96484 5.2656-2.9492 8.5664-4.7773 8.5664-1.832 0-3.8125-3.3008-4.7812-8.5664zm-0.67578 5.0898c-0.57812-1.5-1.0312-3.2227-1.3594-5.0898h-7.0664c1.9883 3.9414 5.6016 6.9297 9.957 8.0664-0.5625-0.8125-1.0781-1.8047-1.5312-2.9766zm12.562-17.023c0.37891 3.207 0.37891 6.7148 0 9.9219h7.6133c1.0898-3.2227 1.0898-6.6992 0-9.9219zm-12.191 0c-0.39062 3.2031-0.39062 6.7188 0 9.9219h10.168c0.39453-3.1914 0.39453-6.7305 0-9.9219zm-2.3086 4.9609c0-1.7031 0.097656-3.3711 0.28516-4.9609h-7.6172c-1.0859 3.2227-1.0859 6.6992 0 9.9219h7.6172c-0.1875-1.5898-0.28516-3.2578-0.28516-4.9609zm12.848-12.066c0.57813 1.4961 1.0352 3.2227 1.3594 5.0898h7.0664c-1.9883-3.9414-5.6016-6.9297-9.9609-8.0664 0.56641 0.8125 1.082 1.8047 1.5352 2.9766zm-5.4531-3.4766c1.8281 0 3.8125 3.3008 4.7773 8.5664h-9.5586c0.96875-5.2656 2.9492-8.5664 4.7812-8.5664z" fill-rule="evenodd"></path></g><g id="SvgjsG5008" featureKey="aAUSXE-0" transform="matrix(0.6738808125771399,0,0,0.6738808125771399,-1.0782092358571416,119.52011695807266)" fill="#01696e"><path d="M12.8 9.38 q0 1.14 -0.43 2.13 t-1.17 1.72 t-1.74 1.14 t-2.12 0.41 l-2.64 0 l0 5.22 l-3.1 0 l0 -15.98 l5.74 0 q1.12 0 2.12 0.41 t1.74 1.13 t1.17 1.7 t0.43 2.12 z M9.72 9.34 q0 -0.62 -0.23 -1.16 t-0.63 -0.94 t-0.94 -0.64 t-1.16 -0.24 l-2.06 0 l0 6.04 l2.06 0 q0.62 0 1.16 -0.25 t0.94 -0.67 t0.63 -0.97 t0.23 -1.17 z M36.736000000000004 20 l-10.56 0 l0 -15.98 l10.56 0 l0 2.56 l-7.52 0 l0 3.82 l7.42 0 l0 2.5 l-7.42 0 l0 4.4 l7.52 0 l0 2.7 z M62.552 20 l-3.42 0 l-1.14 -3.64 q-0.18 -0.6 -0.45 -1.1 t-0.65 -0.86 t-0.91 -0.56 t-1.25 -0.2 l-1.16 0 l0 6.36 l-3.06 0 l0 -15.98 l6.32 -0.02 q1.02 0 1.9 0.35 t1.52 0.97 t1 1.46 t0.36 1.82 q0 0.7 -0.22 1.36 t-0.62 1.22 t-0.95 0.99 t-1.21 0.65 q0.76 0.28 1.24 0.81 t0.76 1.27 q0.14 0.34 0.26 0.68 t0.25 0.71 t0.28 0.8 t0.33 0.95 q0.22 0.66 0.41 1.13 t0.41 0.83 z M58.492 8.82 q0 -0.56 -0.21 -1.02 t-0.57 -0.8 t-0.85 -0.53 t-1.05 -0.19 l-2.24 0 l0 4.98 l2.24 0 q0.56 0 1.05 -0.17 t0.85 -0.49 t0.57 -0.77 t0.21 -1.01 z M86.508 15.8 q0 0.9 -0.39 1.71 t-1.09 1.43 t-1.66 0.99 t-2.12 0.37 q-1.04 0 -1.87 -0.12 t-1.56 -0.38 t-1.4 -0.67 t-1.39 -0.99 l2.2 -2.22 q0.96 0.8 1.88 1.13 t2 0.33 q0.44 0 0.83 -0.13 t0.68 -0.35 t0.46 -0.52 t0.17 -0.66 q0 -0.38 -0.14 -0.68 t-0.5 -0.58 t-1 -0.57 t-1.64 -0.65 q-0.88 -0.32 -1.69 -0.73 t-1.42 -0.99 t-0.98 -1.36 t-0.37 -1.84 q0 -1.02 0.41 -1.88 t1.12 -1.47 t1.66 -0.95 t2.05 -0.34 q1.84 0 3.1 0.48 t2.24 1.4 l-2.16 2.18 q-0.6 -0.58 -1.34 -0.89 t-1.74 -0.31 q-0.46 0 -0.85 0.14 t-0.67 0.37 t-0.45 0.54 t-0.17 0.65 q0 0.38 0.16 0.69 t0.54 0.6 t1.01 0.58 t1.57 0.63 q1.2 0.42 2.06 0.92 t1.4 1.1 t0.8 1.35 t0.26 1.69 z M116.464 12 q0 1.72 -0.67 3.24 t-1.83 2.64 t-2.7 1.77 t-3.28 0.65 t-3.29 -0.65 t-2.71 -1.77 t-1.83 -2.63 t-0.67 -3.25 t0.67 -3.26 t1.83 -2.64 t2.71 -1.76 t3.29 -0.64 t3.28 0.64 t2.7 1.77 t1.83 2.64 t0.67 3.25 z M113.344 12 q0 -1.1 -0.42 -2.07 t-1.15 -1.7 t-1.71 -1.16 t-2.08 -0.43 q-1.12 0 -2.1 0.43 t-1.71 1.16 t-1.15 1.7 t-0.42 2.07 q0 1.08 0.42 2.06 t1.15 1.71 t1.71 1.16 t2.1 0.43 q1.1 0 2.08 -0.43 t1.71 -1.16 t1.15 -1.71 t0.42 -2.06 z M143.54 20 l-3.04 0 l-7.22 -11.22 l0 11.22 l-3.04 0 l0 -16 l3.48 0 l6.78 10.44 l0 -10.44 l3.04 0 l0 16 z M174.05599999999998 20 l-3.4 0 l-1.48 -3.2 l-7.76 0 l-1.5 3.2 l-3.4 0 l7.56 -16 l2.42 0 z M167.95599999999996 14.219999999999999 l-2.66 -5.76 l-2.7 5.76 l5.36 0 z M197.85199999999995 20 l-10.82 0 l0 -15.98 l3.16 0 l0 12.98 l7.66 0 l0 3 z M231.80399999999995 20 l-3.1 0 l0 -15.98 l3.1 0 l0 15.98 z M259.47999999999996 20 l-3.04 0 l-7.22 -11.22 l0 11.22 l-3.04 0 l0 -16 l3.48 0 l6.78 10.44 l0 -10.44 l3.04 0 l0 16 z M284.53599999999994 15.8 q0 0.9 -0.39 1.71 t-1.09 1.43 t-1.66 0.99 t-2.12 0.37 q-1.04 0 -1.87 -0.12 t-1.56 -0.38 t-1.4 -0.67 t-1.39 -0.99 l2.2 -2.22 q0.96 0.8 1.88 1.13 t2 0.33 q0.44 0 0.83 -0.13 t0.68 -0.35 t0.46 -0.52 t0.17 -0.66 q0 -0.38 -0.14 -0.68 t-0.5 -0.58 t-1 -0.57 t-1.64 -0.65 q-0.88 -0.32 -1.69 -0.73 t-1.42 -0.99 t-0.98 -1.36 t-0.37 -1.84 q0 -1.02 0.41 -1.88 t1.12 -1.47 t1.66 -0.95 t2.05 -0.34 q1.84 0 3.1 0.48 t2.24 1.4 l-2.16 2.18 q-0.6 -0.58 -1.34 -0.89 t-1.74 -0.31 q-0.46 0 -0.85 0.14 t-0.67 0.37 t-0.45 0.54 t-0.17 0.65 q0 0.38 0.16 0.69 t0.54 0.6 t1.01 0.58 t1.57 0.63 q1.2 0.42 2.06 0.92 t1.4 1.1 t0.8 1.35 t0.26 1.69 z M309.0919999999999 6.779999999999999 l-4.42 0 l0 13.22 l-3.14 0 l0 -13.22 l-4.42 0 l0 -2.76 l11.98 0 l0 2.76 z M336.0079999999999 20 l-3.4 0 l-1.48 -3.2 l-7.76 0 l-1.5 3.2 l-3.4 0 l7.56 -16 l2.42 0 z M329.9079999999999 14.219999999999999 l-2.66 -5.76 l-2.7 5.76 l5.36 0 z M362.2839999999999 20 l-3.04 0 l-7.22 -11.22 l0 11.22 l-3.04 0 l0 -16 l3.48 0 l6.78 10.44 l0 -10.44 l3.04 0 l0 16 z M391.2999999999999 17.12 q-1.2 1.46 -2.91 2.32 t-3.77 0.86 q-1.78 0 -3.34 -0.65 t-2.72 -1.77 t-1.83 -2.63 t-0.67 -3.25 t0.67 -3.25 t1.83 -2.64 t2.72 -1.77 t3.34 -0.64 q2.06 0 3.77 0.86 t2.85 2.24 l-2.14 2.2 q-0.74 -1.06 -1.91 -1.71 t-2.57 -0.65 q-1.12 0 -2.11 0.43 t-1.73 1.16 t-1.17 1.7 t-0.43 2.07 q0 1.08 0.43 2.05 t1.17 1.7 t1.73 1.16 t2.11 0.43 q1.48 0 2.62 -0.67 t1.9 -1.77 z M414.8359999999999 20 l-10.56 0 l0 -15.98 l10.56 0 l0 2.56 l-7.52 0 l0 3.82 l7.42 0 l0 2.5 l-7.42 0 l0 4.4 l7.52 0 l0 2.7 z M439.29199999999986 15.8 q0 0.9 -0.39 1.71 t-1.09 1.43 t-1.66 0.99 t-2.12 0.37 q-1.04 0 -1.87 -0.12 t-1.56 -0.38 t-1.4 -0.67 t-1.39 -0.99 l2.2 -2.22 q0.96 0.8 1.88 1.13 t2 0.33 q0.44 0 0.83 -0.13 t0.68 -0.35 t0.46 -0.52 t0.17 -0.66 q0 -0.38 -0.14 -0.68 t-0.5 -0.58 t-1 -0.57 t-1.64 -0.65 q-0.88 -0.32 -1.69 -0.73 t-1.42 -0.99 t-0.98 -1.36 t-0.37 -1.84 q0 -1.02 0.41 -1.88 t1.12 -1.47 t1.66 -0.95 t2.05 -0.34 q1.84 0 3.1 0.48 t2.24 1.4 l-2.16 2.18 q-0.6 -0.58 -1.34 -0.89 t-1.74 -0.31 q-0.46 0 -0.85 0.14 t-0.67 0.37 t-0.45 0.54 t-0.17 0.65 q0 0.38 0.16 0.69 t0.54 0.6 t1.01 0.58 t1.57 0.63 q1.2 0.42 2.06 0.92 t1.4 1.1 t0.8 1.35 t0.26 1.69 z M455.4479999999999 20 q0 0.48 -0.14 0.91 t-0.41 0.76 t-0.68 0.52 t-0.95 0.19 q-0.2 0 -0.39 -0.04 t-0.35 -0.08 l0 -0.22 q0.58 -0.1 0.94 -0.54 t0.36 -1.02 q0 -0.1 -0.02 -0.24 t-0.06 -0.24 l-1.28 0 l0 -2.98 l2.98 0 l0 2.98 z M497.57999999999987 15.8 q0 0.9 -0.39 1.71 t-1.09 1.43 t-1.66 0.99 t-2.12 0.37 q-1.04 0 -1.87 -0.12 t-1.56 -0.38 t-1.4 -0.67 t-1.39 -0.99 l2.2 -2.22 q0.96 0.8 1.88 1.13 t2 0.33 q0.44 0 0.83 -0.13 t0.68 -0.35 t0.46 -0.52 t0.17 -0.66 q0 -0.38 -0.14 -0.68 t-0.5 -0.58 t-1 -0.57 t-1.64 -0.65 q-0.88 -0.32 -1.69 -0.73 t-1.42 -0.99 t-0.98 -1.36 t-0.37 -1.84 q0 -1.02 0.41 -1.88 t1.12 -1.47 t1.66 -0.95 t2.05 -0.34 q1.84 0 3.1 0.48 t2.24 1.4 l-2.16 2.18 q-0.6 -0.58 -1.34 -0.89 t-1.74 -0.31 q-0.46 0 -0.85 0.14 t-0.67 0.37 t-0.45 0.54 t-0.17 0.65 q0 0.38 0.16 0.69 t0.54 0.6 t1.01 0.58 t1.57 0.63 q1.2 0.42 2.06 0.92 t1.4 1.1 t0.8 1.35 t0.26 1.69 z M514.256 20 l-3.1 0 l0 -15.98 l3.1 0 l0 15.98 z M544.5919999999999 20 l-3.04 0 l0 -10.68 l-5.04 8.5 l-4.84 -8.58 l0 10.76 l-3.04 0 l0 -16 l3.5 0 l4.44 7.94 l4.64 -7.94 l3.38 0 l0 16 z M570.1679999999999 9.38 q0 1.14 -0.43 2.13 t-1.17 1.72 t-1.74 1.14 t-2.12 0.41 l-2.64 0 l0 5.22 l-3.1 0 l0 -15.98 l5.74 0 q1.12 0 2.12 0.41 t1.74 1.13 t1.17 1.7 t0.43 2.12 z M567.088 9.34 q0 -0.62 -0.23 -1.16 t-0.63 -0.94 t-0.94 -0.64 t-1.16 -0.24 l-2.06 0 l0 6.04 l2.06 0 q0.62 0 1.16 -0.25 t0.94 -0.67 t0.63 -0.97 t0.23 -1.17 z M594.3639999999999 20 l-10.82 0 l0 -15.98 l3.16 0 l0 12.98 l7.66 0 l0 3 z M610.64 20 l-3.1 0 l0 -15.98 l3.1 0 l0 15.98 z M635.5759999999999 6.68 l-7.52 0 l0 3.72 l7.42 0 l0 2.52 l-7.42 0 l0 7.08 l-3.04 0 l0 -15.98 l10.56 0 l0 2.66 z M652.052 20 l-3.1 0 l0 -15.98 l3.1 0 l0 15.98 z M676.9879999999999 20 l-10.56 0 l0 -15.98 l10.56 0 l0 2.56 l-7.52 0 l0 3.82 l7.42 0 l0 2.5 l-7.42 0 l0 4.4 l7.52 0 l0 2.7 z M704.984 12 q0 1.66 -0.56 3.11 t-1.56 2.54 t-2.39 1.72 t-3.03 0.63 l-6.68 0 l0 -16 l6.68 0 q1.64 0 3.03 0.64 t2.39 1.72 t1.56 2.54 t0.56 3.1 z M701.8439999999999 11.92 q0.02 -1.12 -0.34 -2.12 t-1.04 -1.75 t-1.67 -1.18 t-2.23 -0.43 l-2.7 0 l0 10.92 l2.7 0 q1.22 0 2.19 -0.41 t1.65 -1.14 t1.05 -1.72 t0.39 -2.17 z"></path></g><g id="SvgjsG5009" featureKey="nameLeftFeature-0" transform="matrix(1.6602859249878261,0,0,1.6602859249878261,68.63856604818903,78.53254114921327)" fill="#01696e"><path d="M4.74 19.26 q-1.8 -1.02 -2.86 -2.77 t-1.06 -3.81 q0 -2.04 1.06 -3.79 t2.86 -2.77 t3.94 -1.02 t3.96 1.02 t2.88 2.77 t1.06 3.79 q0 2.06 -1.06 3.81 t-2.88 2.77 t-3.96 1.02 t-3.94 -1.02 z M6.32 8.63 q-1.08 0.65 -1.72 1.73 t-0.64 2.32 t0.64 2.33 t1.72 1.75 t2.36 0.66 t2.37 -0.66 t1.72 -1.75 t0.63 -2.33 t-0.63 -2.32 t-1.72 -1.73 t-2.37 -0.65 t-2.36 0.65 z M22.46 16.87 q1.42 0.57 2.6 0.57 q1.24 0 1.97 -0.48 t0.73 -1.14 q0 -0.54 -0.43 -0.88 t-1.09 -0.51 t-1.74 -0.37 q-1.44 -0.24 -2.64 -0.62 t-2.18 -1.32 t-0.98 -2.54 q0 -2.36 1.73 -3.39 t4.07 -1.03 q1.8 0 3.13 0.49 t2.65 1.47 l-1.76 2.4 q-0.98 -0.7 -2.04 -1.1 t-2.1 -0.4 q-0.92 0 -1.72 0.33 t-0.8 1.11 q0 0.48 0.41 0.77 t0.9 0.42 t1.59 0.37 l0.72 0.14 q1.66 0.32 2.75 0.71 t1.89 1.31 t0.8 2.56 q0 2.22 -1.57 3.38 t-4.25 1.16 q-3.92 0 -6.6 -2.28 l1.68 -2.42 q0.86 0.72 2.28 1.29 z M33.300000000000004 5.380000000000001 l6.04 0 q3.26 0 5.34 1.84 q1.12 0.98 1.7 2.37 t0.58 3.09 q0 1.66 -0.6 3.09 t-1.68 2.41 q-1 0.88 -2.37 1.35 t-2.97 0.47 l-6.04 0 l0 -14.62 z M39.34 17.259999999999998 q1.88 0 3.15 -0.98 t1.27 -3.58 t-1.28 -3.58 t-3.14 -0.98 l-2.88 0 l0 9.12 l2.88 0 z M52.739999999999995 19.5 q-1.48 -0.76 -2.29 -2.16 t-0.81 -3.26 l0 -8.68 l3.16 0 l0 8.68 q0 1.28 0.55 2.05 t1.32 1.09 t1.53 0.32 q0.74 0 1.51 -0.32 t1.31 -1.09 t0.54 -2.05 l0 -8.68 l3.16 0 l0 8.68 q0 1.86 -0.8 3.26 t-2.28 2.16 t-3.44 0.76 q-1.98 0 -3.46 -0.76 z"></path></g><g id="SvgjsG5010" featureKey="nameRightFeature-0" transform="matrix(1.651581944297323,0,0,1.651581944297323,180.51404138315218,78.57693145405514)" fill="#01696e"><path d="M7.5600000000000005 5.380000000000001 l6.04 0 q3.26 0 5.34 1.84 q1.12 0.98 1.7 2.37 t0.58 3.09 q0 1.66 -0.6 3.09 t-1.68 2.41 q-1 0.88 -2.37 1.35 t-2.97 0.47 l-6.04 0 l0 -14.62 z M13.6 17.259999999999998 q1.88 0 3.15 -0.98 t1.27 -3.58 t-1.28 -3.58 t-3.14 -0.98 l-2.88 0 l0 9.12 l2.88 0 z M26.4 11.38 l7 0 l0 2.76 l-7 0 l0 3.12 l7.92 0 l0 2.74 l-11.08 0 l0 -14.62 l11.08 0 l0 2.74 l-7.92 0 l0 3.26 z M43.18000000000001 20.36 l-7.38 -14.96 l3.48 0 l3.9 8.08 l3.92 -8.08 l3.5 0 z M55.400000000000006 11.38 l7 0 l0 2.76 l-7 0 l0 3.12 l7.92 0 l0 2.74 l-11.08 0 l0 -14.62 l11.08 0 l0 2.74 l-7.92 0 l0 3.26 z M77.08 20 l-10.84 0 l0 -14.62 l3.18 0 l0 11.88 l7.66 0 l0 2.74 z M81.34 19.26 q-1.8 -1.02 -2.86 -2.77 t-1.06 -3.81 q0 -2.04 1.06 -3.79 t2.86 -2.77 t3.94 -1.02 t3.96 1.02 t2.88 2.77 t1.06 3.79 q0 2.06 -1.06 3.81 t-2.88 2.77 t-3.96 1.02 t-3.94 -1.02 z M82.92000000000002 8.63 q-1.08 0.65 -1.72 1.73 t-0.64 2.32 t0.64 2.33 t1.72 1.75 t2.36 0.66 t2.37 -0.66 t1.72 -1.75 t0.63 -2.33 t-0.63 -2.32 t-1.72 -1.73 t-2.37 -0.65 t-2.36 0.65 z M104.83000000000001 6.08 q1.33 0.7 2.05 1.89 t0.72 2.65 t-0.67 2.62 t-2.01 1.83 t-3.24 0.67 l-2.76 0 l0 4.26 l-3.16 0 l0 -14.62 l5.94 0 q1.8 0 3.13 0.7 z M103.84000000000002 12.3 q0.58 -0.7 0.58 -1.68 q0 -0.64 -0.3 -1.21 t-0.89 -0.93 t-1.41 -0.36 l-2.9 0 l0 4.88 l3.22 0 q1.12 0 1.7 -0.7 z M112.62000000000002 11.38 l7 0 l0 2.76 l-7 0 l0 3.12 l7.92 0 l0 2.74 l-11.08 0 l0 -14.62 l11.08 0 l0 2.74 l-7.92 0 l0 3.26 z M123.48000000000002 20 l0 -14.62 l6.5 0 q1.56 0 2.76 0.64 t1.86 1.8 t0.66 2.64 q0 1.58 -0.8 2.82 t-2.18 1.82 q1.42 1.8 3.78 4.9 l-3.78 0 q-1.28 -1.6 -3.5 -4.56 l-2.16 0 l0 4.56 l-3.14 0 z M129.98000000000002 12.7 q0.82 0 1.48 -0.59 t0.66 -1.65 q0 -0.86 -0.46 -1.6 t-1.68 -0.74 l-3.36 0 l0 4.58 l3.36 0 z"></path></g>
			</g>
		</svg>
	